<svg width="32" height="32" viewBox="0 0 32 32" fill="none" xmlns="http://www.w3.org/2000/svg">
  <!-- Background circle -->
  <circle cx="16" cy="16" r="16" fill="#3B82F6"/>
  
  <!-- Dollar sign -->
  <path d="M16 6V8M16 24V26M20 10C20 8.89543 19.1046 8 18 8H14C12.8954 8 12 8.89543 12 10C12 11.1046 12.8954 12 14 12H18C19.1046 12 20 12.8954 20 14C20 15.1046 19.1046 16 18 16H14C12.8954 16 12 16.8954 12 18C12 19.1046 12.8954 20 14 20H18C19.1046 20 20 20.8954 20 22C20 23.1046 19.1046 24 18 24H14C12.8954 24 12 23.1046 12 22" stroke="white" stroke-width="2" stroke-linecap="round" stroke-linejoin="round"/>
</svg>
